<svg id="visual" viewBox="0 0 900 450" width="900" height="450" xmlns="http://www.w3.org/2000/svg" xmlns:xlink="http://www.w3.org/1999/xlink" version="1.1"><path d="M584 450L728 430L638 411L638 391L674 372L710 352L719 333L701 313L647 293L665 274L665 254L674 235L719 215L665 196L638 176L728 157L683 137L638 117L647 98L719 78L683 59L611 39L692 20L611 0L900 0L900 20L900 39L900 59L900 78L900 98L900 117L900 137L900 157L900 176L900 196L900 215L900 235L900 254L900 274L900 293L900 313L900 333L900 352L900 372L900 391L900 411L900 430L900 450Z" fill="#00b7a1"></path><path d="M458 450L566 430L494 411L467 391L557 372L611 352L602 333L521 313L521 293L467 274L539 254L539 235L548 215L494 196L476 176L584 157L512 137L530 117L476 98L575 78L503 59L476 39L566 20L431 0L612 0L693 20L612 39L684 59L720 78L648 98L639 117L684 137L729 157L639 176L666 196L720 215L675 235L666 254L666 274L648 293L702 313L720 333L711 352L675 372L639 391L639 411L729 430L585 450Z" fill="#00c5a7"></path><path d="M350 450L458 430L368 411L377 391L458 372L521 352L449 333L413 313L404 293L386 274L449 254L404 235L440 215L350 196L404 176L458 157L431 137L404 117L359 98L485 78L431 59L323 39L449 20L350 0L432 0L567 20L477 39L504 59L576 78L477 98L531 117L513 137L585 157L477 176L495 196L549 215L540 235L540 254L468 274L522 293L522 313L603 333L612 352L558 372L468 391L495 411L567 430L459 450Z" fill="#00d4ac"></path><path d="M233 450L359 430L251 411L278 391L386 372L413 352L377 333L323 313L278 293L314 274L368 254L341 235L323 215L269 196L305 176L350 157L359 137L341 117L242 98L368 78L323 59L260 39L332 20L233 0L351 0L450 20L324 39L432 59L486 78L360 98L405 117L432 137L459 157L405 176L351 196L441 215L405 235L450 254L387 274L405 293L414 313L450 333L522 352L459 372L378 391L369 411L459 430L351 450Z" fill="#00e2b0"></path><path d="M62 450L89 430L107 411L80 391L98 372L98 352L71 333L98 313L62 293L107 274L89 254L80 235L89 215L89 196L107 176L98 157L62 137L98 117L80 98L62 78L98 59L80 39L98 20L89 0L234 0L333 20L261 39L324 59L369 78L243 98L342 117L360 137L351 157L306 176L270 196L324 215L342 235L369 254L315 274L279 293L324 313L378 333L414 352L387 372L279 391L252 411L360 430L234 450Z" fill="#00f1b2"></path><path d="M0 450L0 430L0 411L0 391L0 372L0 352L0 333L0 313L0 293L0 274L0 254L0 235L0 215L0 196L0 176L0 157L0 137L0 117L0 98L0 78L0 59L0 39L0 20L0 0L90 0L99 20L81 39L99 59L63 78L81 98L99 117L63 137L99 157L108 176L90 196L90 215L81 235L90 254L108 274L63 293L99 313L72 333L99 352L99 372L81 391L108 411L90 430L63 450Z" fill="#00ffb3"></path></svg>