<svg xmlns="http://www.w3.org/2000/svg" version="1.1" xmlns:xlink="http://www.w3.org/1999/xlink" xmlns:svgjs="http://svgjs.com/svgjs" width="1440" height="560" preserveAspectRatio="none" viewBox="0 0 1440 560"><g mask="url(&quot;#SvgjsMask2058&quot;)" fill="none"><rect width="1440" height="560" x="0" y="0" fill="url(#SvgjsLinearGradient2059)"></rect><path d="M0 290.37L10 240.39L20 244.19L30 282.4L40 290.73L50 343.27L60 303.29L70 337.43L80 349.38L90 407.5L100 453.68L110 487.96L120 418.72L130 429.21L140 464.52L150 492.81L160 447.83L170 403.86L180 343.71L190 275.89L200 276.29L210 213.12L220 272.7L230 227.5L240 296.74L250 355.54L260 334.09L270 398.52L280 362.43L290 348.39L300 317.51L310 306.3L320 372.79L330 373.9L340 316.96L350 296.71L360 249.93L370 216.83L380 243.62L390 299.52L400 342.41L410 305.92L420 350.76L430 341.58L440 350.93L450 392.57L460 416.9L470 423.77L480 428.47L490 447.71L500 399.66L510 442.44L520 458.87L530 480.79L540 427.4L550 362.09L560 416.74L570 353.9L580 344.3L590 302.46L600 305.19L610 372.14L620 404.98L630 399.66L640 337.13L650 318.91L660 310.53L670 271.97L680 313.1L690 339.49L700 354.72L710 367.55L720 379.17L730 337.16L740 351.53L750 417.57L760 470.27L770 485.9L780 483.09L790 452.75L800 397.15L810 400.11L820 345.84L830 290.54L840 281.48L850 258.15L860 275.03L870 279.22L880 262.81L890 283.39L900 213.79L910 255.62L920 245.15L930 229.85L940 271.32L950 287.97L960 274.69L970 272.71L980 247.58L990 259.16L1000 310.51L1010 341.16L1020 397.44L1030 389.71L1040 449.81L1050 384.29L1060 420.81L1070 475.99L1080 505.57L1090 443.01L1100 459.41L1110 510.16L1120 526.08L1130 510.93L1140 517.61L1150 514.41L1160 463.85L1170 406.68L1180 402.57L1190 460.02L1200 508.12L1210 454.63L1220 475.71L1230 530.99L1240 559.18L1250 501.01L1260 433.59L1270 417.85L1280 487.12L1290 518.82L1300 453.58L1310 408.5L1320 412.41L1330 395.26L1340 412.97L1350 359.47L1360 347.86L1370 297.12L1380 229.91L1390 259.34L1400 323.6L1410 374.07L1420 362.32L1430 313.98L1440 259.93" stroke="rgba(56, 56, 56, 1)" stroke-width="2"></path><path d="M0 290.37L10 240.39L20 244.19L30 282.4L40 290.73L50 343.27L60 303.29L70 337.43L80 349.38L90 407.5L100 453.68L110 487.96L120 418.72L130 429.21L140 464.52L150 492.81L160 447.83L170 403.86L180 343.71L190 275.89L200 276.29L210 213.12L220 272.7L230 227.5L240 296.74L250 355.54L260 334.09L270 398.52L280 362.43L290 348.39L300 317.51L310 306.3L320 372.79L330 373.9L340 316.96L350 296.71L360 249.93L370 216.83L380 243.62L390 299.52L400 342.41L410 305.92L420 350.76L430 341.58L440 350.93L450 392.57L460 416.9L470 423.77L480 428.47L490 447.71L500 399.66L510 442.44L520 458.87L530 480.79L540 427.4L550 362.09L560 416.74L570 353.9L580 344.3L590 302.46L600 305.19L610 372.14L620 404.98L630 399.66L640 337.13L650 318.91L660 310.53L670 271.97L680 313.1L690 339.49L700 354.72L710 367.55L720 379.17L730 337.16L740 351.53L750 417.57L760 470.27L770 485.9L780 483.09L790 452.75L800 397.15L810 400.11L820 345.84L830 290.54L840 281.48L850 258.15L860 275.03L870 279.22L880 262.81L890 283.39L900 213.79L910 255.62L920 245.15L930 229.85L940 271.32L950 287.97L960 274.69L970 272.71L980 247.58L990 259.16L1000 310.51L1010 341.16L1020 397.44L1030 389.71L1040 449.81L1050 384.29L1060 420.81L1070 475.99L1080 505.57L1090 443.01L1100 459.41L1110 510.16L1120 526.08L1130 510.93L1140 517.61L1150 514.41L1160 463.85L1170 406.68L1180 402.57L1190 460.02L1200 508.12L1210 454.63L1220 475.71L1230 530.99L1240 559.18L1250 501.01L1260 433.59L1270 417.85L1280 487.12L1290 518.82L1300 453.58L1310 408.5L1320 412.41L1330 395.26L1340 412.97L1350 359.47L1360 347.86L1370 297.12L1380 229.91L1390 259.34L1400 323.6L1410 374.07L1420 362.32L1430 313.98L1440 259.93L1440 560L0 560z" fill="url(#SvgjsLinearGradient2060)"></path></g><defs><mask id="SvgjsMask2058"><rect width="1440" height="560" fill="#ffffff"></rect></mask><linearGradient x1="15.28%" y1="-39.29%" x2="84.72%" y2="139.29%" gradientUnits="userSpaceOnUse" id="SvgjsLinearGradient2059"><stop stop-color="rgba(96, 96, 96, 1)" offset="0"></stop><stop stop-color="rgba(255, 182, 0, 1)" offset="1"></stop></linearGradient><linearGradient x1="50%" y1="0%" x2="50%" y2="100%" id="SvgjsLinearGradient2060"><stop stop-opacity="0.65" stop-color="rgba(56, 56, 56, 1)" offset="0"></stop><stop stop-opacity="0" stop-color="#696969" offset="0.8"></stop></linearGradient></defs></svg>