<svg xmlns="http://www.w3.org/2000/svg" version="1.1" xmlns:xlink="http://www.w3.org/1999/xlink" xmlns:svgjs="http://svgjs.com/svgjs" width="1440" height="560" preserveAspectRatio="none" viewBox="0 0 1440 560"><g mask="url(&quot;#SvgjsMask1020&quot;)" fill="none"><rect width="1440" height="560" x="0" y="0" fill="#1e3266"></rect><path d="M1464 560L0 560 L0 288.66Q33.92 202.58, 120 236.5Q130.97 175.47, 192 186.44Q201.86 124.3, 264 134.16Q314.29 64.45, 384 114.74Q447.93 106.66, 456 170.59Q511.28 153.87, 528 209.15Q636.03 197.19, 648 305.22Q683.47 220.69, 768 256.16Q782.09 198.25, 840 212.34Q862.79 163.13, 912 185.92Q955.39 157.31, 984 200.71Q1039.21 183.93, 1056 239.14Q1121.37 232.5, 1128 297.87Q1155.88 253.75, 1200 281.63Q1190.47 152.1, 1320 142.57Q1347.5 98.06, 1392 125.56Q1445.98 107.54, 1464 161.52z" fill="#182f5d"></path><path d="M1560 560L0 560 L0 351.75Q11.66 291.41, 72 303.07Q146.3 257.37, 192 331.66Q253.06 320.72, 264 381.77Q338.45 336.22, 384 410.66Q405.06 311.73, 504 332.79Q554.32 263.11, 624 313.43Q640.16 257.59, 696 273.74Q769.34 227.08, 816 300.42Q958.82 323.24, 936 466.06Q928.46 338.52, 1056 330.98Q1109.06 264.04, 1176 317.1Q1242.12 311.22, 1248 377.33Q1262.65 271.98, 1368 286.63Q1411.82 258.45, 1440 302.27Q1521.13 263.4, 1560 344.53z" fill="#25467d"></path><path d="M1560 560L0 560 L0 445.41Q44.42 369.83, 120 414.25Q228.61 450.86, 192 559.47Q172.47 467.94, 264 448.41Q290.98 403.39, 336 430.37Q438.37 412.74, 456 515.1Q546.51 485.61, 576 576.12Q616.57 496.69, 696 537.26Q768.83 490.09, 816 562.92Q816.13 491.05, 888 491.19Q903.07 434.26, 960 449.33Q1003.15 420.48, 1032 463.63Q1127.73 487.36, 1104 583.09Q1090.5 449.59, 1224 436.09Q1247.91 388, 1296 411.92Q1337.08 381, 1368 422.08Q1456.27 438.35, 1440 526.61Q1526.02 492.63, 1560 578.65z" fill="rgba(255, 255, 255, 1)"></path></g><defs><mask id="SvgjsMask1020"><rect width="1440" height="560" fill="#ffffff"></rect></mask></defs></svg>